<svg width="24" height="24" viewBox="0 0 24 24" fill="none" xmlns="http://www.w3.org/2000/svg">
<path d="M20.3333 0H3.66667C1.64533 0 0 1.64533 0 3.66667V20.3333C0 22.3547 1.64533 24 3.66667 24H20.3333C22.3547 24 24 22.3547 24 20.3333V3.66667C24 1.64533 22.3547 0 20.3333 0ZM8 18.6667C8 19.0353 7.702 19.3333 7.33333 19.3333H5.33333C4.96467 19.3333 4.66667 19.0353 4.66667 18.6667V10C4.66667 9.63133 4.96467 9.33333 5.33333 9.33333H7.33333C7.702 9.33333 8 9.63133 8 10V18.6667ZM6.33333 8C5.41267 8 4.66667 7.254 4.66667 6.33333C4.66667 5.41267 5.41267 4.66667 6.33333 4.66667C7.254 4.66667 8 5.41267 8 6.33333C8 7.254 7.254 8 6.33333 8ZM19.3333 18.6667C19.3333 19.0353 19.0353 19.3333 18.6667 19.3333H16.6667C16.298 19.3333 16 19.0353 16 18.6667V13.6667C16 12.7473 15.2527 12 14.3333 12C13.414 12 12.6667 12.7473 12.6667 13.6667V18.6667C12.6667 19.0353 12.3687 19.3333 12 19.3333H10C9.63133 19.3333 9.33333 19.0353 9.33333 18.6667V10C9.33333 9.63133 9.63133 9.33333 10 9.33333H12C12.3687 9.33333 12.6667 9.63133 12.6667 10V10.3607C13.3753 9.724 14.308 9.33333 15.3333 9.33333C17.5393 9.33333 19.3333 11.1273 19.3333 13.3333V18.6667Z" fill="#FEF6E6"/>
</svg>
