<svg width="24" height="24" viewBox="0 0 24 24" fill="none" xmlns="http://www.w3.org/2000/svg">
<g clip-path="url(#clip0_104_1591)">
<path d="M11.2805 0V2.16H9.36047V3.12H11.2805V5.28H12.2405V3.12H14.1605V2.16H12.2405V0H11.2805ZM5.28047 2.4V5.28H2.40047V6.24H5.28047V9.12H6.24047V6.24H9.12047V5.28H6.24047V2.4H5.28047ZM17.2805 2.4V5.28H14.4005V6.24H17.2805V9.12H18.2405V6.24H21.1205V5.28H18.2405V2.4H17.2805ZM11.0405 7.68V11.04H7.68047V12.48H11.0405V15.84H12.4805V12.48H15.8405V11.04H12.4805V7.68H11.0405ZM2.40047 9.12V11.28H0.480469V12.24H2.40047V14.4H3.36047V12.24H5.28047V11.28H3.36047V9.12H2.40047ZM20.6405 9.12V11.28H18.7205V12.24H20.6405V14.4H21.6005V12.24H23.5205V11.28H21.6005V9.12H20.6405ZM5.28047 13.92V16.8H2.40047V17.76H5.28047V20.64H6.24047V17.76H9.12047V16.8H6.24047V13.92H5.28047ZM17.2805 13.92V16.8H14.4005V17.76H17.2805V20.64H18.2405V17.76H21.1205V16.8H18.2405V13.92H17.2805ZM11.2805 18.24V20.4H9.36047V21.36H11.2805V23.52H12.2405V21.36H14.1605V20.4H12.2405V18.24H11.2805Z" fill="#FEF6E6"/>
</g>
<defs>
<clipPath id="clip0_104_1591">
<rect width="24" height="24" fill="white"/>
</clipPath>
</defs>
</svg>
