<svg width="107" height="34" viewBox="0 0 107 34" fill="none" xmlns="http://www.w3.org/2000/svg">
<path d="M10.445 33.28C7.34167 33.28 4.85667 32.6967 2.99 31.53C1.12333 30.34 0.19 28.5317 0.19 26.105C0.19 24.8217 0.411667 23.8417 0.855 23.165C1.29833 22.4883 1.95167 22.15 2.815 22.15C3.445 22.15 3.95833 22.3133 4.355 22.64C4.75167 22.9667 4.95 23.3867 4.95 23.9C4.95 24.3667 4.915 24.775 4.845 25.125C4.845 25.2183 4.82167 25.3817 4.775 25.615C4.75167 25.8483 4.74 26.0933 4.74 26.35C4.74 27.4 5.265 28.1817 6.315 28.695C7.38833 29.2083 8.88167 29.465 10.795 29.465C12.7783 29.465 14.33 29.115 15.45 28.415C16.57 27.6917 17.13 26.6883 17.13 25.405C17.13 24.6117 16.8733 23.935 16.36 23.375C15.8467 22.7917 15.205 22.3133 14.435 21.94C13.665 21.5433 12.58 21.065 11.18 20.505C9.38333 19.805 7.91333 19.14 6.77 18.51C5.65 17.88 4.68167 17.0283 3.865 15.955C3.07167 14.8583 2.675 13.505 2.675 11.895C2.675 10.215 3.11833 8.72167 4.005 7.415C4.915 6.10833 6.21 5.09333 7.89 4.37C9.59333 3.64667 11.5883 3.285 13.875 3.285C15.5783 3.285 17.1417 3.54167 18.565 4.055C19.9883 4.545 21.12 5.30333 21.96 6.33C22.8233 7.35667 23.255 8.61666 23.255 10.11C23.255 11.58 23.0333 12.6883 22.59 13.435C22.1467 14.1817 21.4933 14.555 20.63 14.555C20.0233 14.555 19.51 14.3683 19.09 13.995C18.6933 13.6217 18.495 13.1783 18.495 12.665C18.495 12.2217 18.53 11.8133 18.6 11.44C18.67 10.74 18.705 10.2967 18.705 10.11C18.705 9.13 18.2267 8.38333 17.27 7.87C16.3133 7.35667 15.1233 7.1 13.7 7.1C11.6933 7.1 10.1533 7.47333 9.08 8.22C8.03 8.94333 7.505 9.97 7.505 11.3C7.505 12.1867 7.77333 12.945 8.31 13.575C8.87 14.205 9.55833 14.73 10.375 15.15C11.1917 15.57 12.335 16.0717 13.805 16.655C15.5783 17.3783 17.0017 18.0317 18.075 18.615C19.1483 19.1983 20.0583 19.9917 20.805 20.995C21.575 21.9983 21.96 23.235 21.96 24.705C21.96 27.4583 20.91 29.5817 18.81 31.075C16.7333 32.545 13.945 33.28 10.445 33.28ZM44.0308 25.195C44.3341 25.195 44.5674 25.335 44.7308 25.615C44.9174 25.895 45.0108 26.28 45.0108 26.77C45.0108 27.7033 44.7891 28.4267 44.3458 28.94C43.2724 30.1767 42.1641 31.1917 41.0208 31.985C39.9008 32.7783 38.6174 33.175 37.1708 33.175C35.9808 33.175 35.0824 32.8367 34.4758 32.16C33.8691 31.46 33.5658 30.4567 33.5658 29.15C33.5658 28.4967 33.7291 27.33 34.0558 25.65C34.3591 24.18 34.5108 23.165 34.5108 22.605C34.5108 22.2317 34.3824 22.045 34.1258 22.045C33.8224 22.045 33.3908 22.4417 32.8308 23.235C32.2708 24.005 31.7108 25.0317 31.1508 26.315C30.5908 27.5983 30.1358 28.9517 29.7858 30.375C29.3424 32.2417 28.2458 33.175 26.4958 33.175C25.7958 33.175 25.3291 32.93 25.0958 32.44C24.8858 31.9267 24.7808 31.0167 24.7808 29.71C24.7808 28.9633 24.7924 28.3683 24.8158 27.925L24.8508 25.125C24.8508 21.5317 25.2124 17.7867 25.9358 13.89C26.6824 9.99333 27.7674 6.72666 29.1908 4.09C30.6374 1.43 32.3641 0.099998 34.3708 0.099998C35.4441 0.099998 36.3074 0.566665 36.9608 1.5C37.6374 2.41 37.9758 3.6 37.9758 5.07C37.9758 7.42667 37.2874 9.87667 35.9108 12.42C34.5341 14.94 32.2941 17.8917 29.1908 21.275C29.1208 22.4883 29.0858 23.7367 29.0858 25.02C29.8558 23.0367 30.7074 21.4267 31.6408 20.19C32.5974 18.93 33.5308 18.0317 34.4408 17.495C35.3741 16.9583 36.2258 16.69 36.9958 16.69C38.5124 16.69 39.2708 17.4483 39.2708 18.965C39.2708 19.875 39.0141 21.52 38.5008 23.9C38.0574 25.93 37.8358 27.2717 37.8358 27.925C37.8358 28.8583 38.1741 29.325 38.8508 29.325C39.3174 29.325 39.8658 29.045 40.4958 28.485C41.1491 27.9017 42.0124 26.9683 43.0858 25.685C43.3658 25.3583 43.6808 25.195 44.0308 25.195ZM33.6358 3.565C33.2158 3.565 32.7491 4.17167 32.2358 5.385C31.7224 6.575 31.2208 8.19667 30.7308 10.25C30.2641 12.28 29.8791 14.4967 29.5758 16.9C31.0224 15.1967 32.2124 13.3417 33.1458 11.335C34.1024 9.32833 34.5808 7.50833 34.5808 5.875C34.5808 5.12833 34.4991 4.55667 34.3358 4.16C34.1724 3.76333 33.9391 3.565 33.6358 3.565ZM46.7591 14.38C45.7791 14.38 45.0441 14.1583 44.5541 13.715C44.0641 13.2483 43.8191 12.6067 43.8191 11.79C43.8191 10.9733 44.1341 10.2967 44.7641 9.76C45.4175 9.2 46.2225 8.92 47.1791 8.92C48.0425 8.92 48.7425 9.13 49.2791 9.55C49.8158 9.97 50.0841 10.565 50.0841 11.335C50.0841 12.2683 49.7808 13.015 49.1741 13.575C48.5675 14.1117 47.7625 14.38 46.7591 14.38ZM46.4791 33.175C44.9625 33.175 43.8541 32.6383 43.1541 31.565C42.4775 30.4917 42.1391 29.0683 42.1391 27.295C42.1391 26.245 42.2675 24.9033 42.5241 23.27C42.8041 21.6133 43.1541 20.0733 43.5741 18.65C43.7841 17.9033 44.0641 17.39 44.4141 17.11C44.7641 16.83 45.3241 16.69 46.0941 16.69C47.2841 16.69 47.8791 17.0867 47.8791 17.88C47.8791 18.4633 47.6575 19.8167 47.2141 21.94C46.6541 24.5067 46.3741 26.245 46.3741 27.155C46.3741 27.855 46.4675 28.3917 46.6541 28.765C46.8408 29.1383 47.1558 29.325 47.5991 29.325C48.0191 29.325 48.5441 29.0333 49.1741 28.45C49.8041 27.8667 50.6441 26.945 51.6941 25.685C51.9741 25.3583 52.2891 25.195 52.6391 25.195C52.9425 25.195 53.1758 25.335 53.3391 25.615C53.5258 25.895 53.6191 26.28 53.6191 26.77C53.6191 27.7033 53.3975 28.4267 52.9541 28.94C50.6441 31.7633 48.4858 33.175 46.4791 33.175ZM68.4542 22.36C68.5242 22.3367 68.6409 22.325 68.8042 22.325C69.1542 22.325 69.4226 22.4417 69.6092 22.675C69.7959 22.9083 69.8892 23.2233 69.8892 23.62C69.8892 24.3433 69.7492 24.915 69.4692 25.335C69.1892 25.7317 68.7692 26.0233 68.2092 26.21C67.1359 26.56 65.9926 26.735 64.7792 26.735C63.7526 26.735 62.7842 26.595 61.8742 26.315C61.1976 27.4117 60.4509 28.5433 59.6342 29.71C58.7009 31.04 57.8959 31.95 57.2192 32.44C56.5426 32.93 55.7726 33.175 54.9092 33.175C53.9526 33.175 53.1942 32.8017 52.6342 32.055C52.0976 31.3083 51.7592 30.13 51.6192 28.52C51.3392 25.2533 51.1992 22.395 51.1992 19.945V18.72C51.2226 17.95 51.4326 17.4133 51.8292 17.11C52.2259 16.8067 52.8209 16.655 53.6142 16.655C54.2209 16.655 54.6642 16.795 54.9442 17.075C55.2476 17.3317 55.3992 17.775 55.3992 18.405C55.3992 21.0883 55.5626 24.5767 55.8892 28.87C57.2892 26.7933 58.3392 25.1367 59.0392 23.9C58.6892 23.2233 58.5142 22.4183 58.5142 21.485C58.5142 20.6917 58.6892 19.9217 59.0392 19.175C59.3892 18.4283 59.8676 17.8217 60.4742 17.355C61.0809 16.8883 61.7692 16.655 62.5392 16.655C63.2159 16.655 63.7642 16.9 64.1842 17.39C64.6042 17.8567 64.8142 18.545 64.8142 19.455C64.8142 20.505 64.5342 21.7067 63.9742 23.06C64.8609 23.0133 66.0392 22.8383 67.5092 22.535L68.4542 22.36ZM71.1569 33.175C69.7102 33.175 68.5552 32.65 67.6919 31.6C66.8285 30.55 66.3969 29.1733 66.3969 27.47C66.3969 25.6033 66.8285 23.8417 67.6919 22.185C68.5552 20.505 69.6985 19.1633 71.1219 18.16C72.5685 17.1333 74.0969 16.62 75.7069 16.62C76.2202 16.62 76.5585 16.725 76.7219 16.935C76.9085 17.1217 77.0602 17.4717 77.1769 17.985C77.6669 17.8917 78.1802 17.845 78.7169 17.845C79.8602 17.845 80.4319 18.2533 80.4319 19.07C80.4319 19.56 80.2569 20.7267 79.9069 22.57C79.3702 25.2533 79.1019 27.12 79.1019 28.17C79.1019 28.52 79.1835 28.8 79.3469 29.01C79.5335 29.22 79.7669 29.325 80.0469 29.325C80.4902 29.325 81.0269 29.045 81.6569 28.485C82.2869 27.9017 83.1385 26.9683 84.2119 25.685C84.4919 25.3583 84.8069 25.195 85.1569 25.195C85.4602 25.195 85.6935 25.335 85.8569 25.615C86.0435 25.895 86.1369 26.28 86.1369 26.77C86.1369 27.7033 85.9152 28.4267 85.4719 28.94C84.5152 30.13 83.5002 31.1333 82.4269 31.95C81.3535 32.7667 80.3152 33.175 79.3119 33.175C78.5419 33.175 77.8302 32.9183 77.1769 32.405C76.5469 31.8683 76.0685 31.145 75.7419 30.235C74.5285 32.195 73.0002 33.175 71.1569 33.175ZM72.4169 29.64C72.9302 29.64 73.4202 29.3367 73.8869 28.73C74.3535 28.1233 74.6919 27.3183 74.9019 26.315L76.1969 19.875C75.2169 19.8983 74.3069 20.2717 73.4669 20.995C72.6502 21.695 71.9969 22.6283 71.5069 23.795C71.0169 24.9617 70.7719 26.1983 70.7719 27.505C70.7719 28.2283 70.9119 28.765 71.1919 29.115C71.4952 29.465 71.9035 29.64 72.4169 29.64ZM85.7773 33.175C84.8906 33.175 84.2606 32.7083 83.8873 31.775C83.5373 30.8417 83.3623 29.3483 83.3623 27.295C83.3623 24.2617 83.794 21.38 84.6573 18.65C84.8673 17.9733 85.2056 17.4833 85.6723 17.18C86.1623 16.8533 86.839 16.69 87.7023 16.69C88.169 16.69 88.4956 16.7483 88.6823 16.865C88.869 16.9817 88.9623 17.2033 88.9623 17.53C88.9623 17.9033 88.7873 18.7433 88.4373 20.05C88.204 20.9833 88.0173 21.8 87.8773 22.5C87.7373 23.1767 87.6206 24.0283 87.5273 25.055C88.1573 23.235 88.904 21.695 89.7673 20.435C90.654 19.175 91.5523 18.2417 92.4623 17.635C93.3956 17.005 94.2706 16.69 95.0873 16.69C95.904 16.69 96.4756 16.8767 96.8023 17.25C97.1523 17.6233 97.3273 18.195 97.3273 18.965C97.3273 19.7117 97.1056 21.065 96.6623 23.025C96.4756 23.865 96.3473 24.495 96.2773 24.915C97.0473 22.955 97.899 21.3567 98.8323 20.12C99.789 18.8833 100.722 18.0083 101.632 17.495C102.542 16.9583 103.382 16.69 104.152 16.69C104.899 16.69 105.459 16.8883 105.832 17.285C106.229 17.6583 106.427 18.2183 106.427 18.965C106.427 19.5717 106.299 20.715 106.042 22.395C105.809 23.8183 105.622 25.1717 105.482 26.455C105.342 27.715 105.272 29.1267 105.272 30.69C105.272 31.5767 105.086 32.2183 104.712 32.615C104.362 32.9883 103.779 33.175 102.962 33.175C102.192 33.175 101.632 32.9767 101.282 32.58C100.932 32.1833 100.757 31.5883 100.757 30.795C100.757 29.8617 100.921 28.3217 101.247 26.175C101.527 24.3083 101.667 23.1183 101.667 22.605C101.667 22.2317 101.539 22.045 101.282 22.045C100.979 22.045 100.547 22.4417 99.9873 23.235C99.4273 24.005 98.8673 25.0317 98.3073 26.315C97.7473 27.5983 97.2923 28.9517 96.9423 30.375C96.6856 31.495 96.3823 32.2417 96.0323 32.615C95.7056 32.9883 95.169 33.175 94.4223 33.175C93.6523 33.175 93.069 32.8133 92.6723 32.09C92.299 31.3433 92.1123 30.445 92.1123 29.395C92.1123 28.5083 92.229 27.225 92.4623 25.545C92.649 24.0517 92.7423 23.0717 92.7423 22.605C92.7423 22.2317 92.614 22.045 92.3573 22.045C92.0073 22.045 91.564 22.465 91.0273 23.305C90.4906 24.145 89.9656 25.2183 89.4523 26.525C88.9623 27.8317 88.5656 29.115 88.2623 30.375C88.0056 31.4717 87.7023 32.2183 87.3523 32.615C87.0256 32.9883 86.5006 33.175 85.7773 33.175Z" fill="#FEF6E6"/>
</svg>
